<?xml version="1.0" standalone="no"?>
<!DOCTYPE svg PUBLIC "-//W3C//DTD SVG 20010904//EN"
 "http://www.w3.org/TR/2001/REC-SVG-20010904/DTD/svg10.dtd">
<svg version="1.0" xmlns="http://www.w3.org/2000/svg"
 width="700.000000pt" height="700.000000pt" viewBox="0 0 700.000000 700.000000"
 preserveAspectRatio="xMidYMid meet">
<metadata>
Created by potrace 1.14, written by Peter Selinger 2001-2017
</metadata>
<g transform="translate(0.000000,700.000000) scale(0.100000,-0.100000)"
fill="#000000" stroke="none">
<path d="M2719 5386 c-2 -2 -24 -5 -49 -7 -60 -4 -137 -44 -157 -82 -14 -28
-16 -29 -26 -11 -5 10 -12 21 -14 24 -8 9 -23 -25 -23 -52 0 -33 -33 -46 -77
-31 -44 15 -141 3 -144 -18 -1 -5 -2 -15 -3 -21 0 -7 -12 -15 -26 -16 -34 -5
-50 -20 -50 -48 0 -17 -6 -24 -19 -24 -11 0 -28 -12 -38 -26 -11 -15 -34 -29
-53 -33 -37 -7 -44 -24 -13 -29 10 -2 28 -15 40 -30 18 -22 24 -24 37 -13 9 8
16 21 17 30 0 13 2 13 8 -3 5 -14 19 -18 61 -20 67 -2 145 -38 154 -69 3 -12
6 -36 6 -54 0 -39 15 -51 30 -23 15 29 37 25 55 -11 17 -31 13 -65 -4 -54 -6
3 -7 13 -4 21 4 12 0 15 -23 12 -21 -2 -30 -9 -32 -25 -3 -18 2 -23 17 -23 18
0 19 -3 10 -23 -8 -18 -7 -33 5 -60 8 -20 20 -37 25 -37 6 0 11 -9 11 -20 0
-22 68 -100 87 -100 8 0 24 -7 37 -15 21 -14 24 -13 41 5 11 12 20 28 21 37 2
9 10 20 18 25 9 5 16 22 16 41 0 27 6 35 38 50 21 10 45 15 54 12 12 -5 27 3
45 22 20 21 45 33 85 42 32 7 60 17 63 22 4 5 17 9 31 9 30 0 31 14 3 34 -13
9 -19 21 -16 30 10 24 21 19 34 -14 8 -22 16 -28 28 -24 14 6 15 15 10 55 l-7
48 38 3 c35 3 37 5 41 42 2 21 8 47 13 56 7 13 6 20 -5 24 -33 12 -16 55 50
123 36 36 64 74 63 82 -6 30 -56 25 -94 -8 -37 -33 -42 -35 -61 -23 -15 10
-52 91 -53 115 0 43 -16 54 -67 46 -26 -4 -73 -14 -104 -22 -31 -9 -66 -15
-77 -14 -26 2 -20 10 11 14 41 5 107 26 107 33 0 15 -157 39 -171 26z m-161
-854 c2 -7 -2 -10 -12 -6 -9 3 -16 11 -16 16 0 13 23 5 28 -10z"/>
<path d="M4983 4980 c-18 -4 -33 -5 -33 -3 0 3 -18 -11 -39 -30 -22 -20 -53
-43 -70 -52 -17 -8 -35 -23 -40 -34 -9 -15 -3 -21 38 -39 26 -12 54 -22 63
-22 20 0 29 22 17 41 -5 8 -9 21 -9 30 0 23 73 69 118 73 20 3 41 5 45 5 4 1
3 10 -3 21 -11 21 -32 23 -87 10z"/>
<path d="M1850 4873 c-19 -21 -55 -71 -83 -113 -46 -71 -47 -75 -27 -78 27 -4
80 16 80 31 0 6 -7 18 -16 28 -14 16 -14 18 5 28 11 6 24 11 28 10 21 -4 34 2
28 14 -4 6 1 3 10 -8 9 -11 18 -19 20 -17 14 7 25 0 25 -17 0 -11 -4 -23 -10
-26 -17 -10 -11 -25 10 -25 10 0 24 9 30 20 12 22 18 24 38 11 20 -12 -42 -75
-68 -68 -24 6 -51 -18 -44 -38 4 -9 22 -13 57 -13 36 1 64 -6 90 -20 20 -12
37 -19 37 -16 0 4 11 -1 25 -10 29 -19 52 -21 58 -3 3 9 9 9 26 -1 19 -11 21
-10 21 13 0 16 -11 32 -30 47 -16 12 -30 28 -30 35 0 18 9 16 45 -6 28 -17 32
-17 57 -3 39 23 41 39 7 51 -16 6 -37 17 -45 26 -8 8 -26 15 -39 15 -23 0 -35
17 -35 50 0 13 -12 21 -44 29 -49 12 -116 41 -162 71 l-32 20 -32 -37z"/>
<path d="M5146 4837 c-17 -13 -17 -16 14 -50 38 -44 29 -47 -66 -16 l-66 21
-28 -20 c-20 -15 -39 -20 -66 -18 -22 2 -49 0 -62 -5 -14 -5 -30 -5 -41 1 -13
6 -24 5 -37 -5 -11 -8 -34 -15 -52 -15 -23 0 -40 -8 -52 -22 -20 -24 -21 -22
-8 32 2 10 -6 16 -24 18 -30 4 -30 3 -30 -63 1 -22 -2 -32 -4 -22 -3 9 -12 17
-19 17 -28 0 -65 -24 -65 -42 0 -24 -26 -34 -45 -18 -12 10 -18 10 -30 0 -19
-16 -30 -6 -39 33 -6 26 -5 27 13 18 11 -6 29 -11 40 -11 28 0 101 30 101 41
0 12 -41 28 -100 39 -25 5 -70 20 -101 34 -66 31 -158 45 -214 34 -91 -19
-181 -59 -199 -88 -22 -39 -113 -130 -129 -130 -7 0 -29 -14 -49 -30 -33 -28
-36 -34 -27 -57 5 -14 7 -28 5 -31 -3 -2 1 -17 9 -32 20 -38 61 -45 82 -14 8
13 19 24 23 24 7 0 22 -61 24 -95 1 -12 10 -12 56 -1 43 10 60 23 60 47 0 9 7
24 15 33 8 8 19 26 24 39 8 21 6 26 -15 36 -21 9 -23 14 -14 31 6 11 17 20 25
20 15 0 75 47 74 58 -5 31 3 39 36 38 19 -1 36 -5 37 -11 1 -5 -21 -27 -49
-48 l-50 -38 20 -45 c20 -42 23 -44 59 -42 21 1 38 6 38 10 0 15 47 8 61 -9
11 -13 11 -17 1 -20 -6 -3 -10 -8 -7 -12 2 -5 -7 -13 -21 -19 -20 -10 -26 -9
-30 3 -4 9 -19 15 -35 15 -24 0 -29 -4 -29 -25 0 -22 -3 -24 -20 -15 -16 8
-21 6 -31 -12 -7 -12 -12 -35 -11 -50 1 -32 -13 -45 -32 -29 -15 13 -48 10
-68 -5 -24 -19 -46 -23 -81 -13 -42 11 -74 53 -57 74 15 18 -3 28 -23 12 -20
-16 -24 -46 -9 -73 10 -19 9 -21 -13 -16 -19 3 -35 -5 -65 -32 -48 -43 -62
-45 -78 -8 -6 15 -28 47 -47 71 -26 32 -35 51 -31 67 5 17 -1 28 -23 43 -25
18 -30 19 -41 6 -7 -8 -21 -15 -30 -15 -44 0 -21 -65 35 -103 l35 -24 -25 -23
c-28 -27 -32 -45 -10 -54 8 -3 15 -13 15 -22 0 -13 3 -14 14 -5 8 7 29 9 50 5
23 -3 43 -1 52 7 11 9 14 8 14 -5 0 -9 -8 -19 -17 -22 -98 -30 -160 -64 -119
-64 26 0 66 -41 66 -68 0 -50 -13 -57 -97 -57 l-78 0 -7 -80 c-8 -88 2 -125
35 -125 10 0 27 -10 37 -22 17 -21 19 -21 25 -5 4 9 18 17 30 17 30 0 88 48
81 67 -8 19 21 61 46 69 11 3 24 19 30 36 9 27 14 29 42 24 21 -4 39 -1 51 9
31 23 51 18 72 -17 11 -18 37 -42 59 -53 23 -12 45 -34 54 -52 18 -39 30 -42
30 -8 0 13 7 28 16 33 12 7 8 13 -24 36 -22 15 -53 47 -71 71 -48 67 -19 67
51 -1 44 -43 71 -81 100 -141 21 -46 42 -83 47 -83 4 0 18 11 31 25 22 23 22
25 6 50 -16 25 -16 27 6 45 13 11 26 19 31 20 8 0 9 -2 12 -54 2 -28 10 -44
31 -62 16 -13 34 -24 39 -25 28 -3 112 -2 125 2 25 7 25 -58 -1 -114 l-23 -48
-47 6 c-44 6 -50 4 -77 -24 -16 -17 -33 -31 -37 -31 -5 0 4 13 20 30 16 16 26
33 22 36 -3 3 -24 8 -45 10 -22 2 -52 8 -67 14 -35 13 -59 6 -79 -25 -20 -30
-54 -32 -87 -6 -14 10 -40 26 -59 34 -19 8 -46 25 -59 37 -21 20 -21 24 -7 32
20 11 20 37 0 66 -14 20 -21 22 -57 17 -22 -4 -58 -7 -79 -7 -25 1 -65 -12
-111 -34 -41 -20 -81 -32 -92 -30 -14 4 -35 -7 -62 -30 -36 -31 -44 -45 -54
-94 -10 -50 -17 -62 -50 -86 -51 -38 -112 -180 -97 -228 14 -50 11 -98 -10
-141 -15 -29 -17 -45 -10 -58 5 -10 8 -29 6 -42 -2 -16 8 -34 35 -60 20 -20
43 -51 51 -68 8 -18 37 -58 66 -90 51 -56 53 -57 67 -37 12 16 25 20 74 20 47
0 68 6 100 26 53 33 79 29 102 -18 21 -42 27 -45 61 -23 21 14 24 13 41 -5 15
-16 16 -24 7 -47 -21 -52 -25 -138 -8 -155 27 -27 76 -141 76 -176 0 -19 5
-52 11 -72 10 -34 9 -41 -12 -70 -35 -47 -31 -131 9 -231 18 -44 34 -103 37
-139 3 -41 14 -79 29 -104 24 -42 31 -66 42 -132 8 -56 24 -69 65 -55 17 6 47
11 66 11 59 0 76 13 152 117 37 51 53 82 53 105 1 24 9 40 31 59 31 26 31 26
21 83 -12 65 1 97 56 136 18 13 39 39 47 58 17 40 20 176 5 195 -5 6 -13 27
-17 45 -14 68 -8 100 30 159 77 119 89 134 116 150 16 9 34 31 40 47 7 17 25
58 40 91 16 33 32 81 35 108 8 56 1 59 -71 22 -74 -37 -105 -37 -105 0 0 29
-23 80 -50 110 -10 11 -32 56 -50 100 -34 85 -110 293 -110 302 0 2 10 3 23 1
16 -2 26 -15 37 -49 9 -26 21 -53 27 -60 6 -8 14 -31 18 -52 4 -21 23 -60 41
-87 23 -34 39 -73 50 -127 14 -68 25 -92 44 -93 3 0 25 11 50 23 211 110 217
115 269 211 30 55 31 60 16 83 -9 13 -27 29 -40 35 -14 6 -27 20 -31 30 -5 17
-7 17 -26 -7 -11 -14 -28 -30 -39 -35 -16 -9 -21 -7 -30 12 -14 30 -40 76 -63
110 -19 29 -19 69 1 75 6 3 19 -11 28 -29 10 -18 33 -47 54 -64 33 -30 38 -31
62 -18 24 12 27 11 40 -13 7 -14 24 -29 37 -34 34 -13 116 -11 136 4 15 11 23
8 57 -25 35 -33 46 -55 48 -95 1 -19 32 -16 47 5 12 15 13 9 14 -43 0 -72 15
-130 64 -249 20 -50 36 -100 36 -113 0 -37 19 -27 39 20 23 53 32 92 36 159 3
43 9 57 43 92 73 76 91 109 101 177 13 96 5 429 -13 534 -24 134 -26 147 -36
185 -5 19 -10 37 -10 40 -1 10 -29 96 -55 170 -25 70 -131 296 -173 366 -17
30 -19 31 -46 17 l-27 -14 16 31 c16 31 16 31 -30 96 -25 35 -47 64 -49 64 -1
0 -10 -6 -20 -13z m-766 -332 c0 -8 -6 -15 -14 -15 -18 0 -39 27 -31 40 9 14
45 -6 45 -25z m474 -427 c21 -29 10 -41 -30 -35 -47 8 -67 -25 -32 -51 10 -7
18 -19 18 -25 0 -7 9 -18 21 -25 15 -10 18 -17 10 -26 -7 -8 -6 -27 4 -61 8
-26 15 -52 15 -57 0 -16 -44 -25 -75 -15 -67 22 -79 60 -32 97 30 24 28 36 -9
50 -23 9 -64 75 -64 105 0 29 22 52 46 47 14 -2 34 4 50 17 29 23 52 17 78
-21z m-479 -29 c14 -26 45 -41 45 -20 0 17 50 62 62 55 8 -5 6 -11 -6 -19 -15
-11 -14 -14 9 -29 36 -24 95 -82 95 -95 0 -26 -81 -39 -114 -18 -36 24 -71 28
-95 11 -12 -9 -35 -17 -51 -18 -16 -1 -33 -5 -36 -9 -32 -31 -23 59 11 118 43
74 53 77 80 24z m27 -1394 c-2 -11 -10 -31 -19 -44 -23 -36 -33 -11 -24 62 1
5 11 7 24 5 16 -2 21 -9 19 -23z"/>
<path d="M3091 4680 c-22 -13 0 -64 30 -68 13 -2 28 -10 32 -18 4 -8 15 -14
23 -14 25 0 114 51 114 66 0 23 -46 35 -92 25 -31 -7 -48 -6 -68 4 -15 8 -32
10 -39 5z"/>
<path d="M1698 4653 c-8 -10 -8 -17 0 -25 6 -6 8 -17 5 -26 -5 -12 -2 -14 18
-8 59 18 69 19 69 2 0 -20 36 -22 43 -2 3 8 -8 21 -29 32 -19 10 -34 22 -34
25 0 14 -61 15 -72 2z"/>
<path d="M1750 4566 c0 -2 7 -6 15 -10 8 -3 15 -1 15 4 0 6 -7 10 -15 10 -8 0
-15 -2 -15 -4z"/>
<path d="M1925 4562 c-30 -6 -36 -16 -37 -53 -1 -19 -6 -37 -12 -41 -7 -5 -3
-15 12 -31 38 -40 22 -93 -25 -81 -20 6 -21 5 -6 -40 8 -25 13 -52 9 -61 -8
-22 -48 -20 -45 3 1 9 1 26 0 37 -1 15 -3 17 -10 6 -10 -15 -15 -8 -25 31 -5
21 -12 27 -29 26 -26 -2 -135 31 -143 43 -14 23 -43 7 -59 -33 -79 -197 -117
-350 -144 -583 -26 -222 10 -655 54 -655 8 0 15 4 15 9 0 26 33 17 68 -19 23
-22 55 -43 79 -49 46 -13 62 -28 69 -67 5 -28 26 -52 88 -99 l35 -26 13 25 c7
14 18 22 24 18 16 -10 43 -86 39 -108 -2 -10 -4 -29 -4 -40 -1 -12 -18 -45
-40 -74 -34 -46 -38 -55 -31 -86 6 -24 4 -47 -6 -69 -13 -31 -12 -36 10 -62
13 -15 31 -53 41 -83 10 -30 26 -73 35 -95 10 -22 23 -53 29 -70 7 -16 34 -46
61 -65 50 -36 70 -65 70 -103 0 -24 33 -55 170 -160 108 -83 240 -167 263
-167 22 0 57 74 57 120 0 35 5 42 43 68 23 16 57 33 75 37 28 6 37 15 56 58
24 55 39 130 37 187 -1 26 8 49 34 85 41 58 69 141 59 180 -4 16 -23 36 -48
52 -22 15 -46 33 -52 41 -6 8 -27 16 -46 17 -20 2 -54 16 -78 34 -53 39 -66
39 -85 1 -9 -16 -20 -30 -25 -30 -14 0 -12 9 5 26 19 19 20 54 1 54 -7 0 -19
-7 -26 -15 -14 -17 -40 -20 -40 -5 0 5 14 16 30 25 35 18 39 44 10 70 -11 10
-20 24 -20 31 0 8 -15 28 -32 45 -25 24 -39 29 -60 25 -23 -5 -31 1 -55 34
-15 21 -37 40 -48 42 -17 3 -20 9 -17 43 3 36 2 38 -11 21 -12 -17 -14 -17
-20 -2 -8 21 -35 21 -59 0 -16 -15 -18 -15 -24 -1 -3 10 -14 14 -29 11 -15 -3
-27 2 -33 12 -11 20 -40 12 -48 -13 -17 -54 -24 -56 -20 -5 7 69 -8 68 -72 -4
l-50 -56 -21 21 c-17 17 -26 19 -41 11 -10 -5 -22 -14 -25 -20 -10 -16 -32 0
-45 31 -8 19 -10 50 -6 87 6 50 4 61 -14 80 -17 18 -25 20 -41 12 -11 -6 -28
-8 -38 -5 -16 5 -18 13 -13 47 3 23 11 52 17 66 21 39 8 63 -32 60 -38 -2 -49
-12 -55 -46 -1 -12 -7 -23 -13 -23 -5 0 -21 -7 -34 -16 -22 -14 -25 -14 -48
11 -44 47 -51 72 -48 166 l2 89 42 35 c42 35 77 40 107 15 8 -6 16 -2 27 14
17 26 73 31 100 9 9 -8 20 -11 26 -8 5 3 13 -8 16 -26 9 -39 44 -108 55 -108
16 0 17 55 3 104 -24 82 -21 89 50 157 59 55 65 64 56 86 -13 35 -11 46 6 39
11 -4 17 3 22 24 3 17 9 30 14 30 5 0 9 9 9 20 0 15 7 20 28 20 40 0 55 13 47
39 -8 26 18 61 47 61 10 0 18 5 18 10 0 6 5 10 10 10 6 0 10 -9 10 -19 0 -11
4 -22 8 -25 7 -4 129 39 141 50 2 2 0 15 -3 30 -7 25 -8 26 -26 9 -19 -17 -20
-17 -27 1 -5 11 -17 19 -28 19 -16 0 -19 6 -17 28 4 35 -17 43 -57 23 -37 -19
-58 -21 -39 -3 61 55 66 58 92 51 17 -4 26 -13 26 -25 0 -24 4 -24 40 1 17 11
44 29 61 41 40 27 47 17 21 -30 -32 -57 -29 -71 16 -72 20 0 51 -2 69 -3 l32
-4 -14 35 c-8 20 -15 37 -15 39 0 2 -8 4 -17 4 -10 0 -25 4 -33 10 -12 8 -12
14 3 45 22 46 21 52 -3 60 -11 4 -27 19 -35 35 -8 15 -25 30 -38 34 -15 3 -39
30 -68 76 l-44 70 -33 -36 c-32 -35 -33 -36 -53 -18 -12 11 -18 26 -15 37 3
13 -3 21 -22 29 -15 6 -39 17 -55 25 -32 17 -55 21 -82 15z m-208 -396 c14
-13 23 -28 19 -34 -7 -11 -131 -10 -142 1 -4 3 2 10 12 13 10 4 30 16 43 26
31 23 37 23 68 -6z m116 -98 c19 -23 24 -49 5 -30 -19 19 -30 14 -27 -10 4
-27 -9 -51 -22 -43 -5 4 -9 19 -9 34 0 28 -16 51 -36 51 -16 0 -41 -58 -42
-99 -1 -38 -9 -51 -21 -32 -16 25 -7 132 12 146 26 19 118 8 140 -17z m97 -48
c0 -5 -10 -15 -22 -21 -13 -7 -39 -25 -59 -40 -55 -43 -69 -35 -21 13 23 22
42 45 42 50 0 4 14 8 30 8 17 0 30 -4 30 -10z"/>
<path d="M1820 4540 c0 -5 7 -10 15 -10 8 0 15 5 15 10 0 6 -7 10 -15 10 -8 0
-15 -4 -15 -10z"/>
<path d="M4238 4443 c7 -3 16 -2 19 1 4 3 -2 6 -13 5 -11 0 -14 -3 -6 -6z"/>
<path d="M3433 4331 c-15 -13 -21 -26 -18 -42 3 -13 0 -26 -5 -29 -6 -4 -4
-14 4 -26 14 -18 16 -18 43 -2 39 22 56 59 43 92 -11 31 -36 33 -67 7z"/>
<path d="M3827 3913 c-4 -3 -7 -17 -7 -30 0 -28 26 -31 33 -3 5 20 -15 45 -26
33z"/>
<path d="M3695 3880 c-3 -5 -1 -10 4 -10 6 0 11 5 11 10 0 6 -2 10 -4 10 -3 0
-8 -4 -11 -10z"/>
<path d="M3920 3830 c0 -4 11 -17 25 -30 19 -18 28 -21 36 -13 18 18 3 40 -30
45 -17 3 -31 2 -31 -2z"/>
<path d="M1870 3410 c0 -5 7 -10 15 -10 8 0 15 5 15 10 0 6 -7 10 -15 10 -8 0
-15 -4 -15 -10z"/>
<path d="M1767 3361 c-35 -13 -22 -26 28 -27 39 0 58 -6 79 -25 34 -29 63 -41
71 -28 4 5 -8 17 -25 27 -17 9 -44 27 -58 39 -27 23 -61 28 -95 14z"/>
<path d="M2014 3270 c-25 -10 -51 -39 -35 -41 20 -2 26 -4 47 -16 11 -7 26 -8
34 -3 7 4 19 6 27 3 17 -7 17 7 -2 34 -17 24 -43 33 -71 23z"/>
<path d="M2135 3230 c-7 -12 2 -30 16 -30 12 0 12 27 0 35 -5 3 -12 1 -16 -5z"/>
<path d="M1880 3189 c0 -11 5 -19 12 -17 17 6 19 38 2 38 -8 0 -14 -9 -14 -21z"/>
<path d="M5438 2947 c-10 -25 -3 -90 10 -95 18 -6 31 38 20 70 -12 33 -24 43
-30 25z"/>
<path d="M4721 2262 c-11 -22 -38 -55 -60 -72 l-38 -31 2 -123 c1 -67 5 -128
9 -134 4 -7 18 -12 31 -12 18 0 27 9 39 43 13 36 34 108 42 142 1 6 6 28 12
50 19 72 18 133 -2 160 -13 18 -15 16 -35 -23z"/>
</g>
</svg>
